<svg id="Layer_1" data-name="Layer 1" xmlns="http://www.w3.org/2000/svg" viewBox="0 0 747.82 622.96"><defs><style>.cls-1{fill:#ff2e56;}.cls-2{fill:#452b99;}.cls-3{fill:#ffa901;}.cls-4{fill:#fdca23;}.cls-5{fill:#00ce8d;}.cls-6{fill:#2e1c66;}.cls-7{fill:#fff;}.cls-8{fill:#f2f2f2;}.cls-9{fill:#0981f2;}.cls-10{fill:#161136;}.cls-11{fill:#241f3f;}.cls-12{fill:#fa8d93;}.cls-13{fill:#0069cc;}.cls-14{fill:#ff003d;}.cls-15{opacity:0.47;}.cls-16{fill:#ffabab;}.cls-17{fill:#ffc010;}.cls-18{fill:#cf2e4d;}.cls-19{fill:#fea901;}.cls-20{fill:#f9c89d;}.cls-21{fill:#ffe3bb;}.cls-22{fill:#3d238e;}</style></defs><title>lpc2</title><path class="cls-1" d="M1045.15,728.78A76.73,76.73,0,0,0,959.44,800a76.78,76.78,0,0,0,85.71-71.2Z" transform="translate(-301.09 -325.89)"/><path class="cls-2" d="M1032.75,737l-84.94,70.56a1.61,1.61,0,0,0,2.06,2.48l84.94-70.55A1.62,1.62,0,0,0,1032.75,737Z" transform="translate(-301.09 -325.89)"/><path class="cls-2" d="M1035.31,749.94l-13.87-1.83-1.69,1.41,15.41,2C1036.19,751.68,1036.34,750.07,1035.31,749.94Z" transform="translate(-301.09 -325.89)"/><path class="cls-2" d="M1026.42,760.7,1009,758.41l-1.69,1.41,18.92,2.49C1027.31,762.44,1027.45,760.83,1026.42,760.7Z" transform="translate(-301.09 -325.89)"/><path class="cls-2" d="M1018.46,772.43l-22.7-3-1.68,1.4,0,0,24.18,3.18C1019.35,774.18,1019.49,772.57,1018.46,772.43Z" transform="translate(-301.09 -325.89)"/><path class="cls-2" d="M1002.93,780.21l-17.38-2.28-1.69,1.4,18.92,2.49C1003.82,782,1004,780.35,1002.93,780.21Z" transform="translate(-301.09 -325.89)"/><path class="cls-2" d="M986.68,790.33l-13.86-1.83-1.69,1.41,15.4,2C987.57,792.07,987.71,790.46,986.68,790.33Z" transform="translate(-301.09 -325.89)"/><path class="cls-2" d="M1018.09,737.56l-.75,14-1.69,1.4q.42-7.75.83-15.51C1016.54,736.36,1018.15,736.52,1018.09,737.56Z" transform="translate(-301.09 -325.89)"/><path class="cls-2" d="M1005.88,744.32q-.46,8.74-.94,17.5l-1.69,1.4,1-19.05C1004.33,743.13,1005.94,743.28,1005.88,744.32Z" transform="translate(-301.09 -325.89)"/><path class="cls-2" d="M992.89,750l-1.23,22.86-1.68,1.4s0,0,0-.06q.66-12.18,1.31-24.35C991.34,748.8,993,749,992.89,750Z" transform="translate(-301.09 -325.89)"/><path class="cls-2" d="M982.39,763.83q-.46,8.74-.94,17.5l-1.69,1.41,1-19.06C980.84,762.64,982.45,762.79,982.39,763.83Z" transform="translate(-301.09 -325.89)"/><path class="cls-2" d="M969.47,778l-.75,14-1.69,1.4q.42-7.75.83-15.51C967.92,776.75,969.53,776.91,969.47,778Z" transform="translate(-301.09 -325.89)"/><path class="cls-1" d="M1027.52,656.38A76.75,76.75,0,0,0,977.65,756a76.78,76.78,0,0,0,49.87-99.64Z" transform="translate(-301.09 -325.89)"/><path class="cls-2" d="M1019.46,668.87,970,767.61a1.62,1.62,0,0,0,2.89,1.44l49.42-98.74A1.62,1.62,0,0,0,1019.46,668.87Z" transform="translate(-301.09 -325.89)"/><path class="cls-2" d="M1027,679.71l-13.43,3.9-1,2,14.92-4.34C1028.52,681,1028,679.42,1027,679.71Z" transform="translate(-301.09 -325.89)"/><path class="cls-2" d="M1023.2,693.13l-16.83,4.9-1,2,18.33-5.32C1024.71,694.38,1024.2,692.84,1023.2,693.13Z" transform="translate(-301.09 -325.89)"/><path class="cls-2" d="M1020.63,707.08l-22,6.38-1,2h.06l23.42-6.8C1022.14,708.32,1021.63,706.79,1020.63,707.08Z" transform="translate(-301.09 -325.89)"/><path class="cls-2" d="M1009.53,720.44l-16.83,4.89-1,2L1010,722C1011,721.69,1010.53,720.15,1009.53,720.44Z" transform="translate(-301.09 -325.89)"/><path class="cls-2" d="M998.72,736.23l-13.43,3.91-1,2,14.92-4.33C1000.23,737.48,999.72,735.94,998.72,736.23Z" transform="translate(-301.09 -325.89)"/><path class="cls-2" d="M1006.27,675.29q2.47,6.54,4.93,13.09l-1,2q-2.73-7.26-5.47-14.54C1004.37,674.82,1005.91,674.32,1006.27,675.29Z" transform="translate(-301.09 -325.89)"/><path class="cls-2" d="M997.81,686.39q3.09,8.21,6.17,16.4l-1,2-6.72-17.86C995.91,685.92,997.44,685.42,997.81,686.39Z" transform="translate(-301.09 -325.89)"/><path class="cls-2" d="M988.19,696.8l8.07,21.43-1,2,0-.05-8.59-22.83C986.29,696.34,987.83,695.83,988.19,696.8Z" transform="translate(-301.09 -325.89)"/><path class="cls-2" d="M984.14,713.7l6.18,16.4-1,2-6.72-17.86C982.24,713.23,983.78,712.72,984.14,713.7Z" transform="translate(-301.09 -325.89)"/><path class="cls-2" d="M978,731.82l4.93,13.08-1,2q-2.73-7.27-5.47-14.54C976.08,731.35,977.62,730.84,978,731.82Z" transform="translate(-301.09 -325.89)"/><path class="cls-1" d="M301.09,750.41A76.75,76.75,0,0,0,396.3,808.3a76.77,76.77,0,0,0-95.21-57.89Z" transform="translate(-301.09 -325.89)"/><path class="cls-2" d="M312.88,759.48l94.34,57.36a1.62,1.62,0,0,0,1.68-2.76l-94.35-57.37A1.62,1.62,0,0,0,312.88,759.48Z" transform="translate(-301.09 -325.89)"/><path class="cls-2" d="M324.3,752.84l2.79,13.7,1.88,1.14q-1.56-7.6-3.1-15.23C325.66,751.43,324.09,751.82,324.3,752.84Z" transform="translate(-301.09 -325.89)"/><path class="cls-2" d="M337.37,757.74q1.74,8.58,3.49,17.17l1.88,1.15q-1.9-9.36-3.8-18.7C338.73,756.33,337.16,756.72,337.37,757.74Z" transform="translate(-301.09 -325.89)"/><path class="cls-2" d="M351.05,761.45l4.56,22.43,1.87,1.14V785l-4.86-23.89C352.41,760,350.85,760.43,351.05,761.45Z" transform="translate(-301.09 -325.89)"/><path class="cls-2" d="M363.46,773.6q1.76,8.6,3.49,17.18l1.88,1.14q-1.89-9.34-3.8-18.7C364.83,772.2,363.26,772.59,363.46,773.6Z" transform="translate(-301.09 -325.89)"/><path class="cls-2" d="M378.31,785.68l2.79,13.7,1.88,1.14q-1.56-7.6-3.1-15.23C379.67,784.27,378.1,784.66,378.31,785.68Z" transform="translate(-301.09 -325.89)"/><path class="cls-2" d="M318.19,773.14l13.45-3.83,1.88,1.14-14.94,4.26C317.57,775,317.19,773.43,318.19,773.14Z" transform="translate(-301.09 -325.89)"/><path class="cls-2" d="M328.56,782.49l16.86-4.81,1.88,1.15-18.36,5.23C327.94,784.34,327.56,782.77,328.56,782.49Z" transform="translate(-301.09 -325.89)"/><path class="cls-2" d="M338.15,792.93l22-6.28,1.86,1.14,0,0-23.45,6.68C337.53,794.79,337.15,793.21,338.15,792.93Z" transform="translate(-301.09 -325.89)"/><path class="cls-2" d="M354.65,798.35l16.86-4.8,1.88,1.14L355,799.92C354,800.21,353.65,798.64,354.65,798.35Z" transform="translate(-301.09 -325.89)"/><path class="cls-2" d="M372.2,806l13.45-3.83,1.88,1.14-14.94,4.26C371.58,807.84,371.2,806.27,372.2,806Z" transform="translate(-301.09 -325.89)"/><path class="cls-3" d="M1003.77,932.69c0,21.54-648.3,21.54-648.3,0,.52-.37,1-.73,1.6-1.08,52.7-35.46,177.27-60.37,322.55-60.37s269.82,24.91,322.53,60.35C1002.7,932,1003.24,932.32,1003.77,932.69Z" transform="translate(-301.09 -325.89)"/><path class="cls-4" d="M1003.77,932.69c0,21.54-648.3,21.54-648.3,0,.52-.37,1-.73,1.6-1.08,80.6-19.15,195.28-31.11,322.55-31.11s241.92,12,322.53,31.09C1002.7,932,1003.24,932.32,1003.77,932.69Z" transform="translate(-301.09 -325.89)"/><path class="cls-1" d="M319.11,562.68a76.76,76.76,0,0,0,95.22,57.89,76.81,76.81,0,0,0-95.22-57.89Z" transform="translate(-301.09 -325.89)"/><path class="cls-2" d="M330.9,571.75l94.35,57.36a1.62,1.62,0,0,0,1.68-2.76L332.58,569A1.62,1.62,0,0,0,330.9,571.75Z" transform="translate(-301.09 -325.89)"/><path class="cls-2" d="M342.33,565.11q1.38,6.85,2.78,13.7L347,580l-3.09-15.22C343.69,563.7,342.12,564.09,342.33,565.11Z" transform="translate(-301.09 -325.89)"/><path class="cls-2" d="M355.39,570q1.75,8.6,3.5,17.18l1.88,1.14L357,569.63C356.76,568.61,355.19,569,355.39,570Z" transform="translate(-301.09 -325.89)"/><path class="cls-2" d="M369.08,573.72l4.56,22.44,1.86,1.13s0,0,0-.06q-2.43-11.94-4.85-23.89C370.44,572.31,368.87,572.7,369.08,573.72Z" transform="translate(-301.09 -325.89)"/><path class="cls-2" d="M381.49,585.88q1.74,8.58,3.49,17.17l1.88,1.15q-1.91-9.36-3.8-18.71C382.85,584.47,381.28,584.86,381.49,585.88Z" transform="translate(-301.09 -325.89)"/><path class="cls-2" d="M396.34,598q1.38,6.85,2.78,13.7l1.88,1.14-3.09-15.22C397.7,596.54,396.13,596.93,396.34,598Z" transform="translate(-301.09 -325.89)"/><path class="cls-2" d="M336.22,585.41l13.45-3.83,1.88,1.14L336.6,587C335.6,587.27,335.22,585.7,336.22,585.41Z" transform="translate(-301.09 -325.89)"/><path class="cls-2" d="M346.58,594.76l16.86-4.8,1.88,1.14L347,596.33C346,596.62,345.58,595.05,346.58,594.76Z" transform="translate(-301.09 -325.89)"/><path class="cls-2" d="M356.17,605.2l22-6.27,1.87,1.13-.05,0-23.45,6.68C355.55,607.06,355.17,605.49,356.17,605.2Z" transform="translate(-301.09 -325.89)"/><path class="cls-2" d="M372.68,610.63l16.85-4.81,1.88,1.14-18.35,5.24C372.06,612.48,371.68,610.91,372.68,610.63Z" transform="translate(-301.09 -325.89)"/><path class="cls-2" d="M390.23,618.25l13.45-3.83,1.88,1.14-14.95,4.26C389.61,620.11,389.23,618.54,390.23,618.25Z" transform="translate(-301.09 -325.89)"/><path class="cls-5" d="M428.05,915.74a91.3,91.3,0,0,1-77-128c11.54-26.08,34.89-45.94,44.42-72.82,23.1-65.08-43.23-136.76-21-202.13,10.73-31.56,40-53.11,70-67.65S507,420.76,534.59,402c38.47-26.11,68.73-69.89,114.87-75.58,37.73-4.64,74.07,19.38,96.46,50.1S780,444.24,794.33,479.44A682,682,0,0,0,920.79,680.17c23.66,26.05,49.52,50.48,68.72,80s31.38,65.62,23.89,100-39,64.71-74.13,62.38Z" transform="translate(-301.09 -325.89)"/><rect class="cls-2" x="298.83" y="72.04" width="396.28" height="538.8" rx="25" ry="25"/><path class="cls-6" d="M983.31,408.75l-10.55,14.63-350.92,486-10.73,14.87a40.29,40.29,0,0,1-11.2-27.91v-458a40.4,40.4,0,0,1,40.4-40.39H955.79A40.19,40.19,0,0,1,983.31,408.75Z" transform="translate(-301.09 -325.89)"/><rect class="cls-7" x="546.43" y="486.96" width="503.25" height="360.73" rx="14" ry="14" transform="translate(1164.29 -456.61) rotate(90)"/><path class="cls-8" d="M972.76,423.38l-350.92,486a22.43,22.43,0,0,1-4.16-13v-458a22.65,22.65,0,0,1,22.63-22.62H955.79A22.53,22.53,0,0,1,972.76,423.38Z" transform="translate(-301.09 -325.89)"/><path class="cls-3" d="M873.71,421.71,868,396.31a16.51,16.51,0,0,0-16.14-12.93H816.18a18.58,18.58,0,1,0-36.26,0H744.24a16.55,16.55,0,0,0-16.14,12.93l-5.71,25.4a7,7,0,0,0,6.84,8.53H866.89A7,7,0,0,0,873.71,421.71Zm-75.66-32.46a9.9,9.9,0,0,1-9-5.87,9.58,9.58,0,0,1-.87-4,9.91,9.91,0,0,1,19.81,0,9.58,9.58,0,0,1-.88,4A9.86,9.86,0,0,1,798.05,389.25Z" transform="translate(-301.09 -325.89)"/><path class="cls-4" d="M835.31,421.71l-5.7-25.4a16.55,16.55,0,0,0-16.14-12.93h-6.39a9.88,9.88,0,0,1-18.06,0H744.24a16.55,16.55,0,0,0-16.14,12.93l-5.71,25.4a7,7,0,0,0,6.84,8.53h99.25A7,7,0,0,0,835.31,421.71Z" transform="translate(-301.09 -325.89)"/><polygon class="cls-3" points="569.82 83.35 568.01 75.27 425.92 75.27 424.11 83.35 569.82 83.35"/><path class="cls-5" d="M689.58,510.42H661.51a14,14,0,0,1-13.93-13.94V468.41a14,14,0,0,1,13.93-13.93h28.07a14,14,0,0,1,13.94,13.93v28.07A14,14,0,0,1,689.58,510.42Zm-28.07-54.33a12.34,12.34,0,0,0-12.32,12.32v28.07a12.33,12.33,0,0,0,12.32,12.32h28.07a12.33,12.33,0,0,0,12.32-12.32V468.41a12.34,12.34,0,0,0-12.32-12.32Z" transform="translate(-301.09 -325.89)"/><rect class="cls-5" x="653.23" y="460.13" width="44.63" height="44.63" rx="5.12" ry="5.12" transform="translate(856.9 -518.98) rotate(90)"/><polygon class="cls-1" points="374.9 173.27 354.07 151.32 361.1 144.65 374.01 158.25 397.73 126.5 405.5 132.3 374.9 173.27"/><path class="cls-6" d="M943.56,463.62h-222a4.17,4.17,0,0,1-4.16-4.17h0a4.16,4.16,0,0,1,4.16-4.16h222a4.16,4.16,0,0,1,4.16,4.16h0A4.17,4.17,0,0,1,943.56,463.62Z" transform="translate(-301.09 -325.89)"/><path class="cls-6" d="M943.56,486.61h-222a4.16,4.16,0,0,1-4.16-4.16h0a4.17,4.17,0,0,1,4.16-4.17h222a4.17,4.17,0,0,1,4.16,4.17h0A4.16,4.16,0,0,1,943.56,486.61Z" transform="translate(-301.09 -325.89)"/><path class="cls-6" d="M822.56,501.28H721.79a4.33,4.33,0,0,0-4.38,3.73,4.17,4.17,0,0,0,4.14,4.6h101a4.17,4.17,0,0,0,4.17-4.17h0A4.17,4.17,0,0,0,822.56,501.28Z" transform="translate(-301.09 -325.89)"/><path class="cls-5" d="M689.58,605.11H661.51a14,14,0,0,1-13.93-13.93V563.11a14,14,0,0,1,13.93-13.94h28.07a14,14,0,0,1,13.94,13.94v28.07A14,14,0,0,1,689.58,605.11Zm-28.07-54.32a12.34,12.34,0,0,0-12.32,12.32v28.07a12.34,12.34,0,0,0,12.32,12.32h28.07a12.34,12.34,0,0,0,12.32-12.32V563.11a12.34,12.34,0,0,0-12.32-12.32Z" transform="translate(-301.09 -325.89)"/><rect class="cls-5" x="653.23" y="554.83" width="44.63" height="44.63" rx="5.12" ry="5.12" transform="translate(951.6 -424.29) rotate(90)"/><polygon class="cls-1" points="374.9 267.96 354.07 246.02 361.1 239.34 374.01 252.95 397.73 221.19 405.5 227 374.9 267.96"/><path class="cls-6" d="M943.56,558.31h-222a4.16,4.16,0,0,1-4.16-4.16h0a4.17,4.17,0,0,1,4.16-4.17h222a4.17,4.17,0,0,1,4.16,4.17h0A4.16,4.16,0,0,1,943.56,558.31Z" transform="translate(-301.09 -325.89)"/><path class="cls-6" d="M943.56,581.31h-222a4.17,4.17,0,0,1-4.16-4.17h0a4.16,4.16,0,0,1,4.16-4.16h222a4.16,4.16,0,0,1,4.16,4.16h0A4.17,4.17,0,0,1,943.56,581.31Z" transform="translate(-301.09 -325.89)"/><path class="cls-6" d="M822.56,596H721.79a4.33,4.33,0,0,0-4.38,3.74,4.17,4.17,0,0,0,4.14,4.6h101a4.17,4.17,0,0,0,4.17-4.17h0A4.17,4.17,0,0,0,822.56,596Z" transform="translate(-301.09 -325.89)"/><path class="cls-5" d="M689.58,699.81H661.51a14,14,0,0,1-13.93-13.94V657.81a14,14,0,0,1,13.93-13.94h28.07a14,14,0,0,1,13.94,13.94v28.06A14,14,0,0,1,689.58,699.81Zm-28.07-54.32a12.33,12.33,0,0,0-12.32,12.32v28.06a12.33,12.33,0,0,0,12.32,12.32h28.07a12.33,12.33,0,0,0,12.32-12.32V657.81a12.33,12.33,0,0,0-12.32-12.32Z" transform="translate(-301.09 -325.89)"/><rect class="cls-5" x="653.23" y="649.53" width="44.63" height="44.63" rx="5.12" ry="5.12" transform="translate(1046.3 -329.59) rotate(90)"/><polygon class="cls-1" points="374.9 362.66 354.07 340.71 361.1 334.04 374.01 347.64 397.73 315.89 405.5 321.69 374.9 362.66"/><path class="cls-6" d="M943.56,653h-222a4.17,4.17,0,0,1-4.16-4.17h0a4.16,4.16,0,0,1,4.16-4.16h222a4.16,4.16,0,0,1,4.16,4.16h0A4.17,4.17,0,0,1,943.56,653Z" transform="translate(-301.09 -325.89)"/><path class="cls-6" d="M943.56,676h-222a4.17,4.17,0,0,1-4.16-4.17h0a4.17,4.17,0,0,1,4.16-4.17h222a4.17,4.17,0,0,1,4.16,4.17h0A4.17,4.17,0,0,1,943.56,676Z" transform="translate(-301.09 -325.89)"/><path class="cls-6" d="M822.56,690.67H721.79a4.33,4.33,0,0,0-4.38,3.74,4.16,4.16,0,0,0,4.14,4.59h101a4.17,4.17,0,0,0,4.17-4.17h0A4.17,4.17,0,0,0,822.56,690.67Z" transform="translate(-301.09 -325.89)"/><path class="cls-5" d="M689.58,794.51H661.51a14,14,0,0,1-13.93-13.94V752.5a14,14,0,0,1,13.93-13.93h28.07a14,14,0,0,1,13.94,13.93v28.07A14,14,0,0,1,689.58,794.51Zm-28.07-54.33a12.34,12.34,0,0,0-12.32,12.32v28.07a12.34,12.34,0,0,0,12.32,12.32h28.07a12.34,12.34,0,0,0,12.32-12.32V752.5a12.34,12.34,0,0,0-12.32-12.32Z" transform="translate(-301.09 -325.89)"/><rect class="cls-5" x="653.23" y="744.22" width="44.63" height="44.63" rx="5.12" ry="5.12" transform="translate(1140.99 -234.9) rotate(90)"/><polygon class="cls-1" points="374.9 457.35 354.07 435.41 361.1 428.73 374.01 442.34 397.73 410.59 405.5 416.39 374.9 457.35"/><path class="cls-6" d="M943.56,747.71h-222a4.17,4.17,0,0,1-4.16-4.17h0a4.17,4.17,0,0,1,4.16-4.17h222a4.17,4.17,0,0,1,4.16,4.17h0A4.17,4.17,0,0,1,943.56,747.71Z" transform="translate(-301.09 -325.89)"/><path class="cls-6" d="M943.56,770.7h-222a4.16,4.16,0,0,1-4.16-4.16h0a4.16,4.16,0,0,1,4.16-4.17h222a4.16,4.16,0,0,1,4.16,4.17h0A4.16,4.16,0,0,1,943.56,770.7Z" transform="translate(-301.09 -325.89)"/><path class="cls-6" d="M822.56,785.36H721.79a4.33,4.33,0,0,0-4.38,3.74,4.17,4.17,0,0,0,4.14,4.6h101a4.17,4.17,0,0,0,4.17-4.17h0A4.17,4.17,0,0,0,822.56,785.36Z" transform="translate(-301.09 -325.89)"/><path class="cls-5" d="M689.58,889.2H661.51a14,14,0,0,1-13.93-13.94V847.2a14,14,0,0,1,13.93-13.94h28.07a14,14,0,0,1,13.94,13.94v28.06A14,14,0,0,1,689.58,889.2Zm-28.07-54.32a12.33,12.33,0,0,0-12.32,12.32v28.06a12.33,12.33,0,0,0,12.32,12.32h28.07a12.33,12.33,0,0,0,12.32-12.32V847.2a12.33,12.33,0,0,0-12.32-12.32Z" transform="translate(-301.09 -325.89)"/><rect class="cls-5" x="653.23" y="838.92" width="44.63" height="44.63" rx="5.12" ry="5.12" transform="translate(1235.69 -140.2) rotate(90)"/><polygon class="cls-1" points="374.9 552.05 354.07 530.1 361.1 523.43 374.01 537.03 397.73 505.28 405.5 511.08 374.9 552.05"/><path class="cls-6" d="M943.56,842.4h-222a4.16,4.16,0,0,1-4.16-4.16h0a4.16,4.16,0,0,1,4.16-4.17h222a4.16,4.16,0,0,1,4.16,4.17h0A4.16,4.16,0,0,1,943.56,842.4Z" transform="translate(-301.09 -325.89)"/><path class="cls-6" d="M943.56,865.4h-222a4.17,4.17,0,0,1-4.16-4.17h0a4.17,4.17,0,0,1,4.16-4.17h222a4.17,4.17,0,0,1,4.16,4.17h0A4.17,4.17,0,0,1,943.56,865.4Z" transform="translate(-301.09 -325.89)"/><path class="cls-6" d="M822.56,880.06H721.79a4.33,4.33,0,0,0-4.38,3.74,4.16,4.16,0,0,0,4.14,4.59h101a4.17,4.17,0,0,0,4.17-4.16h0A4.17,4.17,0,0,0,822.56,880.06Z" transform="translate(-301.09 -325.89)"/><path class="cls-9" d="M942.71,401.19a20,20,0,0,1,3.37-23.13,20.75,20.75,0,0,1,23.21-3.7,21.59,21.59,0,0,1,11.6,20.58,17.58,17.58,0,0,1,14.73-10.26,15.68,15.68,0,0,1,11.61,3.94,12,12,0,0,1,3.52,11.48c4.15-5,11.85-5.34,17.83-2.9a15.82,15.82,0,0,1,9.54,15.42c4.47,1.76,9.55,5.69,10.79,10.34H897.14c4.17-7.84,10.4-15.18,18.55-18.71S934.13,398.87,942.71,401.19Z" transform="translate(-301.09 -325.89)"/><circle class="cls-9" cx="88.74" cy="501.15" r="27.15"/><path class="cls-9" d="M394.85,780.34A9.35,9.35,0,1,1,385.5,771,9.35,9.35,0,0,1,394.85,780.34Z" transform="translate(-301.09 -325.89)"/><path class="cls-9" d="M355.44,855.89a7.3,7.3,0,1,1-7.3-7.3A7.3,7.3,0,0,1,355.44,855.89Z" transform="translate(-301.09 -325.89)"/><path class="cls-9" d="M637.57,363.47a16.83,16.83,0,1,1-22.85-6.66A16.84,16.84,0,0,1,637.57,363.47Z" transform="translate(-301.09 -325.89)"/><path class="cls-9" d="M668.87,358.08a10.58,10.58,0,1,1-14.37-4.19A10.59,10.59,0,0,1,668.87,358.08Z" transform="translate(-301.09 -325.89)"/><path class="cls-9" d="M603.76,348.64a3.17,3.17,0,1,1-4.3-1.25A3.17,3.17,0,0,1,603.76,348.64Z" transform="translate(-301.09 -325.89)"/><path class="cls-9" d="M456.68,375.73a27.92,27.92,0,1,0,1.57,39.44A27.92,27.92,0,0,0,456.68,375.73ZM426.87,408a16,16,0,1,1,22.65-.9A16,16,0,0,1,426.87,408Z" transform="translate(-301.09 -325.89)"/><rect class="cls-9" x="413" y="406.66" width="7.74" height="24.34" transform="translate(93.65 -497.57) rotate(42.72)"/><path class="cls-2" d="M395.18,442.33h0a7.08,7.08,0,0,1-.4-10l9.22-10a7.08,7.08,0,0,1,10-.4h0a7.08,7.08,0,0,1,.39,10l-9.21,10A7.08,7.08,0,0,1,395.18,442.33Z" transform="translate(-301.09 -325.89)"/><polygon class="cls-10" points="232.06 584.16 233.41 594.51 256.57 605.28 213.21 605.28 213.21 584.16 232.06 584.16"/><polygon class="cls-10" points="127.03 584.16 125.68 594.51 102.52 605.28 145.88 605.28 145.88 584.16 127.03 584.16"/><path class="cls-11" d="M546.12,699V910a46,46,0,0,1-43.94,0s2.42-131.69-6.47-162.33H484.4S473.9,868.55,457.74,913c0,0-24.64,4-40.8-4.85,0,0,22.22-149.47,20.6-193.5Z" transform="translate(-301.09 -325.89)"/><path class="cls-12" d="M560,674.64a7.07,7.07,0,0,1-11.23,5.94c0-.23-.12-.46-.17-.68V665.59c2.91,0,6-.4,8.18,1.49A10.12,10.12,0,0,1,560,674.64Z" transform="translate(-301.09 -325.89)"/><path class="cls-1" d="M551.46,704.67a132.38,132.38,0,0,1-37.28,18.22c-.58.18-1.14.36-1.73.52-45.56,13.11-82.18-4.46-82.18-4.46,19.12-61.14,0-141.81,0-141.81L437,573l13.95-8.63L464.48,556l23,4L498,554.83l-2.2-8.18,12.3,4.52,9.95,3.66C554.16,631,551.46,704.67,551.46,704.67Z" transform="translate(-301.09 -325.89)"/><path class="cls-1" d="M514,563.53l4-8.7s50.68,5.43,61.3,59.59c5.23,31-16.32,64.13-16.32,64.13s-12.81-4.74-20-29.71c0,0,14.75-13.53,5.93-36.05C542,595.39,527.22,597,527.22,597Z" transform="translate(-301.09 -325.89)"/><path class="cls-9" d="M515.7,581.45a2.48,2.48,0,0,1,2.07-2.45,199.14,199.14,0,0,0-.4-24.43l-9.26-3.4-12.3-4.52,2.2,8.18L487.44,560l-23-4-13.54,8.38L446.73,567c7.8,9.49,19.69,17,28.92,24.84,9.07,7.65,18.58,15.86,29,21.75,7.41,4.21,8.81-4.19,9.82-9.41,1.11-5.73,2.22-11.58,2.79-17.39.08-.81.14-1.62.2-2.43A3.31,3.31,0,0,1,515.7,581.45Z" transform="translate(-301.09 -325.89)"/><polygon class="cls-13" points="188.77 238.46 182.3 257.45 158.25 233.25 163.39 230.07 188.77 238.46"/><polygon class="cls-13" points="195.97 240.4 202.5 250.18 205.49 224.72 199.27 223.29 195.97 240.4"/><path class="cls-14" d="M514.18,722.89c-.58.18-1.14.36-1.73.52,9.81-61.94-5.67-109.6-5.83-110.07a.86.86,0,0,1,.5-1.07.79.79,0,0,1,1,.52C508.32,613.27,523.81,660.93,514.18,722.89Z" transform="translate(-301.09 -325.89)"/><path class="cls-6" d="M497.27,606.54c-.1,1.61-.22,2.49-.22,2.49l1.24,3.29c2.93,1,5.7,2.44,8.59,3.55a2.54,2.54,0,0,1,1.28,1l.3.09a43.33,43.33,0,0,1,4.73-9.33c-.49-1.88-1-3.73-1.54-5.51a146.24,146.24,0,0,0-14.19-32.37c-1.57-2.62-2.55-4-2.55-4h-4c.84,2.41,1.59,4.76,2.23,7A105.2,105.2,0,0,1,497.27,606.54Z" transform="translate(-301.09 -325.89)"/><path class="cls-15" d="M497.46,569.79a6.93,6.93,0,0,1-4.35,3c-.64-2.27-1.39-4.62-2.23-7h4S495.89,567.17,497.46,569.79Z" transform="translate(-301.09 -325.89)"/><path class="cls-16" d="M497.05,550l-2.14,10L465,558.32c-.87-4.7-4.23-14.54-7.17-22.62-2.51-6.92-4.67-12.54-4.67-12.54l35.9,5.65,5.56,14.76Z" transform="translate(-301.09 -325.89)"/><path class="cls-6" d="M484.94,566.9a7.57,7.57,0,0,0,13.71-5.75l-6.71-4.33L487.43,560Z" transform="translate(-301.09 -325.89)"/><path class="cls-14" d="M508.92,617.13l-10-3-28-8.54s-.27-11.26-1.08-11-10,3.53-10.5,2.43c-.39-.81-14.77-16-22.37-24l13.95-8.63,46.33,42.19Z" transform="translate(-301.09 -325.89)"/><path class="cls-14" d="M516.45,581.89l7,6.68C523,597,518,605.37,514,610.88a64.65,64.65,0,0,1-5.09,6.25,151.47,151.47,0,0,0,2.73-15c3.18-24.74-1-43-3.54-51l9.95,3.66,5.4,25.16Z" transform="translate(-301.09 -325.89)"/><path class="cls-14" d="M483.09,685.69a33.33,33.33,0,0,1-20.69,18.39c-2,.62-1.14,3.74.86,3.12a36.45,36.45,0,0,0,22.62-19.88C486.73,685.44,483.94,683.8,483.09,685.69Z" transform="translate(-301.09 -325.89)"/><path class="cls-14" d="M541.5,691.46A19,19,0,0,1,527.41,682a1.62,1.62,0,0,0-2.79,1.63,22.48,22.48,0,0,0,16.88,11.09C543.56,695,543.54,691.72,541.5,691.46Z" transform="translate(-301.09 -325.89)"/><path class="cls-17" d="M323.82,710.58a25.58,25.58,0,0,1,12.38-34L586,560.13l43,8.74L607.6,606.51,357.82,723A25.59,25.59,0,0,1,323.82,710.58Z" transform="translate(-301.09 -325.89)"/><path class="cls-18" d="M325.87,714.18a25.32,25.32,0,0,1-2-3.61,25.57,25.57,0,0,1,12.38-34l9.17-4.27,6.33,13.59L367,718.67,357.82,723a25.58,25.58,0,0,1-26.74-3.16A26.08,26.08,0,0,1,325.87,714.18Z" transform="translate(-301.09 -325.89)"/><path class="cls-1" d="M331.08,719.79a25.59,25.59,0,0,1,13.66-30.66l7-3.24L367,718.67,357.82,723A25.58,25.58,0,0,1,331.08,719.79Z" transform="translate(-301.09 -325.89)"/><path class="cls-19" d="M364.25,710.26l-14.19-30.44,236.4-110.21a62.62,62.62,0,0,0,2.47,9.88,65,65,0,0,0,2.54,6.31,61.5,61.5,0,0,0,3.21,6,62.54,62.54,0,0,0,6,8.24Z" transform="translate(-301.09 -325.89)"/><path class="cls-17" d="M360,701.2l-5.75-12.32L588.93,579.49a65,65,0,0,0,2.54,6.31,61.5,61.5,0,0,0,3.21,6Z" transform="translate(-301.09 -325.89)"/><path class="cls-20" d="M591.48,585.8a60,60,0,0,1-3.78-10.42,61.58,61.58,0,0,1-2-15.1l.31-.14,31.44,6.38L629,568.87l-5.87,10.31-1.74,3-13.82,24.3-.31.14A61.38,61.38,0,0,1,591.48,585.8Z" transform="translate(-301.09 -325.89)"/><path class="cls-21" d="M591.48,585.8a60,60,0,0,1-3.78-10.42l32.35,6.56,1.37.28-13.82,24.3-.31.14A61.38,61.38,0,0,1,591.48,585.8Z" transform="translate(-301.09 -325.89)"/><path class="cls-22" d="M618.26,573.9a11.68,11.68,0,0,1-.85-7.39L629,568.87l-5.87,10.31A11.64,11.64,0,0,1,618.26,573.9Z" transform="translate(-301.09 -325.89)"/><path class="cls-12" d="M494.63,543.57a47.09,47.09,0,0,1-36.79-7.87c-2.51-6.92-4.67-12.54-4.67-12.54l35.9,5.65Z" transform="translate(-301.09 -325.89)"/><path class="cls-11" d="M489.07,431.59a65.45,65.45,0,0,0-36-1.35c-33.32,8.56-50.31,46.56-34.48,77.1,8.28,16,23.43,26,39.93,21.47Z" transform="translate(-301.09 -325.89)"/><path class="cls-16" d="M496.52,445.32s38.45,51.73,18.09,79.43a29.7,29.7,0,0,1-13.15,9.71c-20.48,8.14-46,2.58-59.07-20.19l-13.2-31.82,24.51-27.16L467.44,444l21.63-3.51Z" transform="translate(-301.09 -325.89)"/><circle class="cls-11" cx="432.14" cy="487.87" r="16.58" transform="translate(-454.9 -123.37) rotate(-22.5)"/><circle class="cls-16" cx="136.62" cy="173.27" r="10.83"/><path class="cls-11" d="M429.19,470.76l20.58,31.6a1.76,1.76,0,0,0,2.92-.07h0a12.63,12.63,0,0,0,1.12-11.35L443.2,460.13Z" transform="translate(-301.09 -325.89)"/><path class="cls-11" d="M467.72,457c-2.28,6.1-2.78,14.12,4.83,21.26l-18.31,9.59s-19.93-11-11.85-35.28c4.31-10.5,16.16-17.23,33.93-12.12,0,0,4.19-15.61,21-11.85,18,4,17.51,26.36,15.08,35L499,469a46.44,46.44,0,0,0-5.85-15C486.75,444.26,471.8,446.12,467.72,457Z" transform="translate(-301.09 -325.89)"/><polygon class="cls-9" points="162.55 227.01 190.85 230.93 181.43 252.79 159.12 232.72 162.55 227.01"/><polygon class="cls-9" points="194.71 220.77 190.85 230.93 201.09 244.67 203.78 224.1 194.71 220.77"/><path class="cls-16" d="M554.33,658.2c0,1.52-3.24,4-7.24,5.52s-7.24,1.52-7.24,0,3.24-4,7.24-5.52S554.33,656.67,554.33,658.2Z" transform="translate(-301.09 -325.89)"/><path class="cls-16" d="M554.33,663.72c0,1.52-3.24,4-7.24,5.52s-7.24,1.52-7.24,0,3.24-4,7.24-5.52S554.33,662.19,554.33,663.72Z" transform="translate(-301.09 -325.89)"/><path class="cls-16" d="M554.33,669.24c0,1.52-3.24,4-7.24,5.52s-7.24,1.52-7.24,0,3.24-4,7.24-5.52S554.33,667.71,554.33,669.24Z" transform="translate(-301.09 -325.89)"/><path class="cls-16" d="M554.33,674.76c0,1.52-3.24,4-7.24,5.52s-7.24,1.52-7.24,0,3.24-4,7.24-5.52S554.33,673.23,554.33,674.76Z" transform="translate(-301.09 -325.89)"/><path class="cls-16" d="M544,661h7.37a0,0,0,0,1,0,0v14.73a2.87,2.87,0,0,1-2.87,2.87H544a0,0,0,0,1,0,0V661A0,0,0,0,1,544,661Z" transform="translate(-372.92 -260.07) rotate(-6.45)"/><path class="cls-12" d="M497.62,489.24l13,7.21a3,3,0,0,1-.51,5.47l-2.85.94a3.63,3.63,0,0,1-4.47-2Z" transform="translate(-301.09 -325.89)"/><path class="cls-16" d="M462.22,671.29a7.61,7.61,0,0,1,3.59-5.14,6,6,0,0,1,5.74,0,12.51,12.51,0,0,1,2.36-4.55c.66-.8,1.73-1.51,2.52-.92a1.82,1.82,0,0,1,.59,1.52,6.23,6.23,0,0,1-.41,1.69l-1,2.84s8.2-9.84,9.92-8.6-.64,8-.64,8,.2,4.54-1,7-13.43,11.42-22.58,9.27l-1.61-4Z" transform="translate(-301.09 -325.89)"/><path class="cls-1" d="M440.46,585l-10.19-7.87s-48.67,24-38.84,83.1a41.15,41.15,0,0,0,3.8,11.9c17.07,33.43,68.41,20.41,68.41,20.41V662.86s-25.55,4.59-35.18-12a22.37,22.37,0,0,1-2.71-13.48c1.18-12,5.17-20.27,14.71-25.2Z" transform="translate(-301.09 -325.89)"/><path class="cls-11" d="M480,492.93a3.34,3.34,0,1,1-4.5-1.4A3.34,3.34,0,0,1,480,492.93Z" transform="translate(-301.09 -325.89)"/><path class="cls-11" d="M479.63,487.05a8.15,8.15,0,0,0-10.2,5.35l-3.27-1a11.56,11.56,0,0,1,14.49-7.6Z" transform="translate(-301.09 -325.89)"/><path class="cls-11" d="M508.61,480.68a3.34,3.34,0,1,1-4.5-1.4A3.34,3.34,0,0,1,508.61,480.68Z" transform="translate(-301.09 -325.89)"/><path class="cls-11" d="M508.26,474.8a8.14,8.14,0,0,0-10.19,5.35l-3.28-1a11.57,11.57,0,0,1,14.5-7.6C508.94,472.62,508.6,473.71,508.26,474.8Z" transform="translate(-301.09 -325.89)"/><path class="cls-7" d="M485.69,513.19c.62,5.63,4.45,10,9.1,10s8.47-4.34,9.1-10Z" transform="translate(-301.09 -325.89)"/></svg>